<?xml version="1.0" encoding="utf-8"?>
<svg version="1.1" xmlns:xlink="http://www.w3.org/1999/xlink" width="167px" height="41px" xmlns="http://www.w3.org/2000/svg">
  <defs>
    <mask fill="white" id="clip32">
      <path d="M 0 40.28571428571428  L 0 12.754041522109901  L 12.066473988439299 0.25  L 156.1401734104046 0.25  L 166.6784112138859 12.754041522109901  L 166.03468208092488 40.28571428571428  L 36.239892183288475 40.28571428571428  L 10.894302229562356 40.28571428571428  L 0 40.28571428571428  Z " fill-rule="evenodd" />
    </mask>
  </defs>
  <g transform="matrix(1 0 0 1 -143 -352 )">
    <path d="M 0 40.28571428571428  L 0 12.754041522109901  L 12.066473988439299 0.25  L 156.1401734104046 0.25  L 166.6784112138859 12.754041522109901  L 166.03468208092488 40.28571428571428  L 36.239892183288475 40.28571428571428  L 10.894302229562356 40.28571428571428  L 0 40.28571428571428  Z " fill-rule="nonzero" fill="#015478" stroke="none" transform="matrix(1 0 0 1 143 352 )" />
    <path d="M 0 40.28571428571428  L 0 12.754041522109901  L 12.066473988439299 0.25  L 156.1401734104046 0.25  L 166.6784112138859 12.754041522109901  L 166.03468208092488 40.28571428571428  L 36.239892183288475 40.28571428571428  L 10.894302229562356 40.28571428571428  L 0 40.28571428571428  Z " stroke-width="2" stroke="#33ffff" fill="none" stroke-opacity="0.32941176470588235" transform="matrix(1 0 0 1 143 352 )" mask="url(#clip32)" />
  </g>
</svg>